<svg width="24" height="24" viewBox="0 0 24 24" fill="none" xmlns="http://www.w3.org/2000/svg">
<g id="bxs-brightness.svg">
<path id="Vector" d="M21.2384 11.3384L18.6924 8.79339V5.19239C18.6924 5.05979 18.6397 4.93261 18.5459 4.83884C18.4522 4.74507 18.325 4.69239 18.1924 4.69239H14.5914L12.0454 2.14639C11.9516 2.05266 11.8245 2 11.6919 2C11.5593 2 11.4322 2.05266 11.3384 2.14639L8.79339 4.69239H5.19239C5.05979 4.69239 4.93261 4.74507 4.83884 4.83884C4.74507 4.93261 4.69239 5.05979 4.69239 5.19239V8.79339L2.14639 11.3394C2.05266 11.4332 2 11.5603 2 11.6929C2 11.8255 2.05266 11.9526 2.14639 12.0464L4.69239 14.5914V18.1924C4.69239 18.325 4.74507 18.4522 4.83884 18.5459C4.93261 18.6397 5.05979 18.6924 5.19239 18.6924H8.79339L11.3394 21.2384C11.4332 21.3321 11.5603 21.3848 11.6929 21.3848C11.8255 21.3848 11.9526 21.3321 12.0464 21.2384L14.5914 18.6924H18.1924C18.325 18.6924 18.4522 18.6397 18.5459 18.5459C18.6397 18.4522 18.6924 18.325 18.6924 18.1924V14.5914L21.2384 12.0454C21.3321 11.9516 21.3848 11.8245 21.3848 11.6919C21.3848 11.5593 21.3321 11.4322 21.2384 11.3384ZM11.6924 15.6924C10.6315 15.6924 9.61411 15.271 8.86397 14.5208C8.11382 13.7707 7.69239 12.7533 7.69239 11.6924C7.69239 10.6315 8.11382 9.61411 8.86397 8.86397C9.61411 8.11382 10.6315 7.69239 11.6924 7.69239C12.7533 7.69239 13.7707 8.11382 14.5208 8.86397C15.271 9.61411 15.6924 10.6315 15.6924 11.6924C15.6924 12.7533 15.271 13.7707 14.5208 14.5208C13.7707 15.271 12.7533 15.6924 11.6924 15.6924Z" fill="white"/>
</g>
</svg>
