<svg width="24" height="24" viewBox="0 0 24 24" fill="none" xmlns="http://www.w3.org/2000/svg">
<path d="M18.2 6.5H17.1119C17.2439 6.06241 17.3074 5.60701 17.3 5.15C17.3 3.413 15.887 2 14.15 2C12.6902 2 11.7155 3.3338 11.0864 4.7765C10.4663 3.413 9.4421 2 7.85 2C6.113 2 4.7 3.413 4.7 5.15C4.7 5.6864 4.7711 6.1301 4.8881 6.5H3.8C2.8073 6.5 2 7.3073 2 8.3V10.1C2 11.0927 2.8073 11.9 3.8 11.9V18.2C3.8 19.1927 4.6073 20 5.6 20H16.4C17.3927 20 18.2 19.1927 18.2 18.2V11.9C19.1927 11.9 20 11.0927 20 10.1V8.3C20 7.3073 19.1927 6.5 18.2 6.5ZM14.15 3.8C14.8943 3.8 15.5 4.4057 15.5 5.15C15.5 6.5 14.9366 6.5 14.6 6.5H12.3698C12.8297 5.0816 13.4975 3.8 14.15 3.8ZM6.5 5.15C6.5 4.4057 7.1057 3.8 7.85 3.8C8.6492 3.8 9.3926 5.1725 9.8282 6.5H7.4C7.0634 6.5 6.5 6.5 6.5 5.15ZM3.8 8.3H10.1V10.1H3.8V8.3ZM5.6 18.2V11.9H10.1V18.2H5.6ZM16.4 18.2H11.9V11.9H16.4V18.2ZM11.9 10.1V8.3765L11.9153 8.3H18.2L18.2009 10.1H11.9Z" fill="white"/>
</svg>
