<svg width="24" height="24" viewBox="0 0 24 24" fill="none" xmlns="http://www.w3.org/2000/svg">
<g id="bxs-brain.svg">
<path id="Vector" d="M3.299 17.5961C3.731 18.9282 5.044 19.7781 6.445 19.7781H6.5C6.62853 20.4055 6.96969 20.9692 7.46582 21.374C7.96196 21.7789 8.58265 22.0001 9.223 22.0001C9.68 22.0001 10.107 21.8851 10.485 21.6871C10.6428 21.6007 10.774 21.4729 10.8647 21.3175C10.9555 21.1622 11.0022 20.985 11 20.8051V3.02715C11.002 2.79805 10.9251 2.57524 10.7821 2.39621C10.6391 2.21718 10.4389 2.09286 10.215 2.04415C9.71331 1.9467 9.19349 2.01735 8.736 2.24515C7.992 2.60115 7.556 3.39615 7.556 4.22315V4.27815C6.99921 4.16451 6.42097 4.22436 5.89925 4.44962C5.37754 4.67488 4.93746 5.05472 4.63837 5.53791C4.33928 6.0211 4.19557 6.58439 4.22661 7.15181C4.25766 7.71923 4.46198 8.26348 4.812 8.71115C4.02808 8.83397 3.31388 9.23293 2.79824 9.83603C2.28261 10.4391 1.9995 11.2067 2 12.0001C2 13.1781 2.611 14.2111 3.533 14.8121C3.103 15.5831 2.962 16.5581 3.299 17.5961ZM19.188 8.71115C19.538 8.26348 19.7423 7.71923 19.7734 7.15181C19.8044 6.58439 19.6607 6.0211 19.3616 5.53791C19.0625 5.05472 18.6225 4.67488 18.1007 4.44962C17.579 4.22436 17.0008 4.16451 16.444 4.27815V4.22315C16.444 3.39715 16.007 2.60115 15.263 2.24515C14.8059 2.01728 14.2864 1.94663 13.785 2.04415C13.5612 2.09303 13.3611 2.2174 13.2181 2.39639C13.0752 2.57538 12.9982 2.7981 13 3.02715V20.8041C13 21.1691 13.192 21.5161 13.516 21.6861C13.894 21.8851 14.32 22.0001 14.777 22.0001C15.4175 22 16.0383 21.7787 16.5344 21.3737C17.0306 20.9686 17.3717 20.4047 17.5 19.7771H17.556C18.956 19.7771 20.27 18.9271 20.702 17.5951C21.039 16.5571 20.898 15.5821 20.468 14.8111C20.9377 14.5077 21.3239 14.0915 21.5915 13.6005C21.8591 13.1095 21.9995 12.5593 22 12.0001C22.0005 11.2067 21.7174 10.4391 21.2018 9.83603C20.6861 9.23293 19.9719 8.83397 19.188 8.71115Z" fill="white"/>
</g>
</svg>
