<svg xmlns="http://www.w3.org/2000/svg" width="22" height="22" viewBox="0 0 22 22" fill="none">
  <path d="M12.8333 7.33301H3.66659C2.6555 7.33301 1.83325 8.15526 1.83325 9.16634V18.333C1.83325 19.3441 2.6555 20.1663 3.66659 20.1663H12.8333C13.8443 20.1663 14.6666 19.3441 14.6666 18.333V9.16634C14.6666 8.15526 13.8443 7.33301 12.8333 7.33301Z" fill="white"/>
  <path d="M18.3333 1.83301H9.16659C8.68036 1.83301 8.21404 2.02616 7.87022 2.36998C7.52641 2.7138 7.33325 3.18011 7.33325 3.66634V5.49967H14.6666C15.1528 5.49967 15.6191 5.69283 15.9629 6.03665C16.3068 6.38046 16.4999 6.84678 16.4999 7.33301V14.6663H18.3333C18.8195 14.6663 19.2858 14.4732 19.6296 14.1294C19.9734 13.7856 20.1666 13.3192 20.1666 12.833V3.66634C20.1666 3.18011 19.9734 2.7138 19.6296 2.36998C19.2858 2.02616 18.8195 1.83301 18.3333 1.83301Z" fill="white"/>
</svg>