<svg xmlns="http://www.w3.org/2000/svg" width="20" height="20" viewBox="0 0 20 20" fill="none">
<path fill-rule="evenodd" clip-rule="evenodd" d="M10.0267 0.5C4.51773 0.5 0.0527344 4.965 0.0527344 10.474C0.0527344 14.88 2.90973 18.619 6.87373 19.939C7.37273 20.029 7.55273 19.722 7.55273 19.458C7.55273 19.221 7.54473 18.593 7.54173 17.762C4.76673 18.364 4.18073 16.424 4.18073 16.424C3.72873 15.272 3.07373 14.965 3.07373 14.965C2.16873 14.346 3.14273 14.36 3.14273 14.36C4.14473 14.43 4.66973 15.388 4.66973 15.388C5.55973 16.912 7.00573 16.472 7.57173 16.217C7.66273 15.572 7.92273 15.132 8.20673 14.883C5.99273 14.632 3.66473 13.776 3.66473 9.953C3.66473 8.866 4.05373 7.974 4.68873 7.278C4.58773 7.025 4.24273 6.01 4.78773 4.638C4.78773 4.638 5.62473 4.369 7.52973 5.659C8.34333 5.43767 9.18257 5.3247 10.0257 5.323C10.8689 5.32437 11.7082 5.43735 12.5217 5.659C14.4277 4.368 15.2637 4.638 15.2637 4.638C15.8087 6.01 15.4667 7.025 15.3627 7.278C16.0027 7.974 16.3867 8.865 16.3867 9.953C16.3867 13.786 14.0567 14.628 11.8347 14.875C12.1897 15.183 12.5097 15.791 12.5097 16.721C12.5097 18.055 12.4977 19.131 12.4977 19.458C12.4977 19.725 12.6757 20.035 13.1847 19.937C17.1467 18.615 20.0007 14.879 20.0007 10.474C20.0007 4.965 15.5357 0.5 10.0267 0.5Z" fill="white"/>
</svg>