<svg xmlns="http://www.w3.org/2000/svg" width="20" height="20" viewBox="0 0 20 20" fill="none">
  <path d="M15.6091 4.50858L14.5425 5.34191L10.0008 8.71691L5.45912 5.30858L4.39245 4.47524C4.14116 4.26736 3.83441 4.13778 3.51019 4.10253C3.18597 4.06729 2.85854 4.12795 2.56846 4.27698C2.27837 4.42601 2.03839 4.65688 1.87823 4.94097C1.71808 5.22506 1.64479 5.5499 1.66745 5.87524V15.5336C1.66745 15.8342 1.78685 16.1224 1.9994 16.335C2.21194 16.5475 2.5002 16.6669 2.80078 16.6669H5.45912V10.2336L10.0008 13.6419L14.5425 10.2336V16.6669H17.2008C17.5014 16.6669 17.7896 16.5475 18.0022 16.335C18.2147 16.1224 18.3341 15.8342 18.3341 15.5336V5.87524C18.3498 5.55271 18.2714 5.23258 18.1085 4.95376C17.9456 4.67494 17.7052 4.44945 17.4166 4.30468C17.1279 4.15992 16.8035 4.10213 16.4826 4.13832C16.1617 4.17452 15.8583 4.30315 15.6091 4.50858Z" fill="white"/>
</svg>